<svg xmlns="http://www.w3.org/2000/svg" viewBox="0 0 1200 630">
  <defs>
    <linearGradient id="bgGrad" x1="0%" y1="0%" x2="100%" y2="100%">
      <stop offset="0%" style="stop-color:#1e40af;stop-opacity:1" />
      <stop offset="50%" style="stop-color:#3b82f6;stop-opacity:1" />
      <stop offset="100%" style="stop-color:#06b6d4;stop-opacity:1" />
    </linearGradient>
    <linearGradient id="iconGrad" x1="0%" y1="0%" x2="100%" y2="100%">
      <stop offset="0%" style="stop-color:#ffffff;stop-opacity:1" />
      <stop offset="100%" style="stop-color:#e0f2fe;stop-opacity:1" />
    </linearGradient>
  </defs>
  <!-- Background -->
  <rect width="1200" height="630" fill="url(#bgGrad)"/>
  <!-- Decorative circles -->
  <circle cx="100" cy="100" r="150" fill="rgba(255,255,255,0.05)"/>
  <circle cx="1100" cy="530" r="200" fill="rgba(255,255,255,0.05)"/>
  <circle cx="900" cy="100" r="100" fill="rgba(255,255,255,0.03)"/>
  <!-- Map pin icon -->
  <g transform="translate(450, 150)">
    <path d="M150 0C100.294 0 60 40.294 60 90c0 75 90 160 90 160s90-85 90-160c0-49.706-40.294-90-90-90zm0 122a32 32 0 1 1 0-64 32 32 0 0 1 0 64z" fill="url(#iconGrad)"/>
  </g>
  <!-- Main text -->
  <text x="600" y="480" text-anchor="middle" font-family="Arial, sans-serif" font-size="80" font-weight="bold" fill="white">대전으로</text>
  <!-- Sub text -->
  <text x="600" y="550" text-anchor="middle" font-family="Arial, sans-serif" font-size="36" fill="rgba(255,255,255,0.9)">Let's Go Daejeon</text>
</svg>
